
      <svg data-logo="logo" xmlns="http://www.w3.org/2000/svg" viewBox="0 0 41 41">
        <g id="logogram" transform="translate(0, 0) rotate(0) "><path d="M40.6035 40.89V0.889954H19.0079L0.603525 19.2943L0.603516 40.89H40.6035Z" fill="#2F2722"/><path fill-rule="evenodd" clip-rule="evenodd" d="M19.9139 27.4315L19.9139 39.5106L11.638 39.5106L11.638 24.0035L23.7171 11.9244L39.2242 11.9244L39.2242 20.2003L27.1451 20.2003L19.9139 27.4315Z" fill="#D62727"/><path fill-rule="evenodd" clip-rule="evenodd" d="M10.2587 23.2936L10.2587 39.5106L1.98283 39.5106L1.98283 19.8656L19.5792 2.26926L39.2242 2.26926L39.2242 10.5451L23.0072 10.5451L10.2587 23.2936Z" fill="#FFD43E"/><path fill-rule="evenodd" clip-rule="evenodd" d="M29.569 31.5695L29.569 39.5106L21.2932 39.5106L21.2932 28.1415L27.855 21.5796L39.2242 21.5796L39.2242 29.8555L31.283 29.8555L29.569 31.5695Z" fill="#EA721B"/></g>
        <g id="logotype" transform="translate(41, 20.5)"></g>
        
      </svg>
    